<?xml version="1.0" standalone="no"?>
<!DOCTYPE svg PUBLIC "-//W3C//DTD SVG 20010904//EN"
 "http://www.w3.org/TR/2001/REC-SVG-20010904/DTD/svg10.dtd">
<svg version="1.0" xmlns="http://www.w3.org/2000/svg"
 width="200.000000pt" height="93.000000pt" viewBox="0 0 200.000000 93.000000"
 preserveAspectRatio="xMidYMid meet">

<g transform="translate(0.000000,93.000000) scale(0.100000,-0.100000)"
fill="#000000" stroke="none">
<path d="M1130 520 c-15 -15 -20 -33 -20 -70 l0 -50 -40 0 -40 0 0 40 c0 65
-56 103 -94 65 -9 -9 -17 -11 -21 -5 -9 15 -101 12 -142 -5 -34 -14 -37 -14
-55 5 -16 17 -31 20 -113 20 -82 0 -98 -3 -115 -20 l-21 -21 -28 21 c-19 13
-45 20 -74 20 -38 0 -49 -5 -74 -33 l-30 -34 -16 30 c-17 28 -19 29 -80 25
-46 -3 -72 -10 -96 -27 -37 -27 -70 -91 -71 -136 0 -40 38 -114 71 -138 33
-24 107 -33 149 -19 26 10 34 8 50 -8 25 -25 45 -25 70 0 14 14 18 27 14 50
-6 28 -5 30 24 30 25 0 30 -5 35 -30 4 -16 18 -37 32 -46 23 -15 27 -15 50 0
23 15 25 23 25 84 0 37 -5 85 -10 107 -5 22 -8 41 -7 42 2 1 13 0 25 -4 21 -5
22 -11 22 -108 0 -86 3 -104 18 -118 23 -21 56 -22 71 -3 7 9 13 57 14 122 2
89 5 109 18 112 12 2 15 -9 15 -67 -1 -75 13 -104 66 -144 32 -24 106 -33 150
-18 25 9 34 9 37 0 6 -18 40 -49 54 -49 36 0 51 27 51 91 l1 64 31 3 c30 3 31
2 36 -42 7 -56 22 -76 57 -76 31 0 51 16 51 42 0 10 4 18 9 18 6 0 3 12 -5 28
-12 21 -13 48 -8 128 l6 101 -27 21 c-34 27 -40 27 -65 2z m58 -12 c8 -8 11
-53 10 -147 l-2 -136 -3 120 c-4 147 -7 162 -36 168 -20 4 -20 4 -1 6 11 0 25
-4 32 -11z m-756 -18 c37 -29 60 -94 63 -185 l4 -80 -9 74 c-15 133 -47 188
-118 201 l-37 8 36 1 c22 1 46 -7 61 -19z m276 -5 c4 -19 3 -19 -10 -1 -13 16
-25 18 -101 14 -47 -2 -84 -1 -81 4 3 5 47 7 97 6 83 -3 92 -5 95 -23z m292 6
c5 -11 10 -38 10 -60 l0 -40 58 -4 57 -3 -62 -2 -63 -2 0 45 c0 32 -6 51 -20
65 -15 15 -16 20 -5 20 8 0 19 -9 25 -19z m-772 -3 c20 -20 13 -32 -8 -13 -15
14 -30 16 -66 12 -29 -3 -41 -1 -33 4 21 13 93 11 107 -3z m680 0 c20 -20 13
-32 -8 -13 -15 14 -30 16 -66 12 -29 -3 -41 -1 -33 4 21 13 93 11 107 -3z
m-281 -225 c-2 -32 -3 -6 -3 57 0 63 1 89 3 58 2 -32 2 -84 0 -115z m-383 90
l-7 -60 -61 1 c-61 1 -61 1 -64 32 -5 47 25 77 84 84 27 3 50 5 52 5 1 -1 -1
-29 -4 -62z m151 46 c8 -25 3 -32 -23 -27 -16 2 -18 7 -11 26 10 28 26 28 34
1z m535 -55 c0 -48 -3 -63 -12 -58 -7 4 -37 8 -68 8 l-55 1 -3 36 c-4 49 32
79 94 79 l44 0 0 -66z m-810 -64 c11 -6 36 -8 54 -4 38 7 76 -2 76 -18 0 -7
-5 -6 -15 2 -10 8 -31 10 -64 5 -42 -6 -52 -4 -70 14 -12 12 -21 33 -20 49 1
27 1 26 10 -5 5 -18 18 -37 29 -43z m682 -2 c7 -1 35 -2 62 -2 34 -1 51 -6 54
-16 4 -13 3 -13 -11 -2 -11 9 -30 11 -60 7 -38 -6 -48 -4 -66 14 -12 12 -21
31 -21 44 1 18 3 17 15 -10 8 -18 20 -34 27 -35z m215 -50 c-2 -18 -4 -6 -4
27 0 33 2 48 4 33 2 -15 2 -42 0 -60z m-690 5 c-3 -10 -5 -4 -5 12 0 17 2 24
5 18 2 -7 2 -21 0 -30z"/>
<path d="M1568 503 c7 -3 16 -2 19 1 4 3 -2 6 -13 5 -11 0 -14 -3 -6 -6z"/>
<path d="M1947 480 c9 -33 -15 -51 -60 -48 -22 2 -42 -2 -44 -7 -4 -13 87 -7
105 7 14 12 16 54 3 62 -5 4 -7 -3 -4 -14z"/>
<path d="M1600 403 c0 -38 12 -39 15 0 2 18 8 22 31 20 22 -2 25 0 14 7 -8 5
-25 10 -37 10 -20 0 -23 -5 -23 -37z"/>
<path d="M1333 398 c-12 -6 -27 -25 -33 -42 l-11 -31 29 34 c24 29 33 33 62
29 30 -4 31 -4 15 9 -22 15 -32 15 -62 1z"/>
<path d="M1731 349 c-13 -17 -47 -42 -77 -56 -47 -21 -54 -28 -54 -53 0 -35
-26 -63 -52 -57 -10 3 -16 1 -12 -4 8 -13 48 -11 62 3 7 7 12 26 12 44 0 26 5
34 29 42 43 15 109 59 121 81 17 33 -5 32 -29 0z"/>
<path d="M1832 304 c10 -10 20 -16 22 -13 3 3 -5 11 -17 18 -21 13 -21 12 -5
-5z"/>
<path d="M1978 276 c6 -50 -39 -96 -100 -103 -26 -3 -61 0 -80 6 -23 8 -29 8
-21 0 19 -19 86 -29 127 -18 56 15 86 49 86 98 0 22 -4 42 -8 45 -4 2 -6 -10
-4 -28z"/>
<path d="M1480 245 c-15 -28 -84 -65 -121 -65 -14 0 -47 11 -72 24 -57 28 -60
25 -10 -9 52 -35 126 -35 174 0 35 26 59 53 59 67 0 17 -17 7 -30 -17z"/>
</g>
</svg>
